<?xml version="1.0" encoding="utf-8"?>
<!-- Generator: Adobe Illustrator 24.1.3, SVG Export Plug-In . SVG Version: 6.00 Build 0)  -->
<svg version="1.1" id="Layer_1" xmlns:xodm="http://www.corel.com/coreldraw/odm/2003"
	 xmlns="http://www.w3.org/2000/svg" xmlns:xlink="http://www.w3.org/1999/xlink" x="0px" y="0px" viewBox="0 0 187 69.2"
	 style="enable-background:new 0 0 187 69.2;" xml:space="preserve">
<style type="text/css">
	.st0{fill-rule:evenodd;clip-rule:evenodd;fill:#FF6600;}
	.st1{fill-rule:evenodd;clip-rule:evenodd;}
</style>
<g id="Layer_x0020_1_1_">
	<g id="_2674104438688_1_">
		<g>
			<g id="Layer_2_2_">
				<g id="Layer_1-2_1_">
					<path d="M44.4,34.9L44.4,34.9L44.4,34.9L44.4,34.9L44.4,34.9L44.4,34.9L44.4,34.9L44.4,34.9z"/>
					<path d="M47.5,25.2L47.5,25.2L47.5,25.2z"/>
					<g id="Layer_1-2-2_1_">
						<g id="Layer_2-2_1_">
							<g id="Layer_1-2-2-2_1_">
								<path d="M67.9,36.8c-2.6-2.7-5.7-5-9.2-6.4c-1.2-0.5-2.2-1.1-3.3-1.7l0,0c-0.2-0.2-0.5-0.3-0.7-0.5l0,0l-0.2-0.1
									C54.4,28,54.4,28,54.3,28l0,0c-0.4-0.2-0.8-0.5-1.2-0.8l0,0l0,0c-0.5-0.4-1-0.8-1.4-1.4l0,0l0,0l0,0
									c-0.1-0.1-0.1-0.2-0.2-0.2l0,0c-0.1-0.2-0.2-0.3-0.3-0.5c-1.2-1.7-1.7-3.6-1.8-5.7v-0.1l0,0c0-0.2,0-0.4,0-0.6
									c-0.1,0.1-0.1,0.2-0.1,0.2l-0.1,0.2c-0.2,2.6,0.3,5,2.1,7c0.1,0.1,0.1,0.3,0.1,0.4c-0.4,1.2-1.2,2.2-2.3,3
									c-1.2,0.8-2.6,1.3-4,1.7c-0.2,0.1-0.6,0.1-0.8,0.1c-0.3,0.1-0.7,0.2-1,0.2c0,0.1,0.1,0.1,0.1,0.2c0.2,0,0.3,0,0.5,0
									c0.5,0,0.7,0.2,0.7,0.7c-0.1,0.8-0.2,1.7-0.4,2.6c-0.3,1.2-1.1,2.3-1.8,3.5c-0.5,0.8-1.1,1.7-1.7,2.6
									c-0.7-3.5-0.2-6.6,1.6-9.6c-0.8,0.7-1.2,1.7-1.7,2.7c-0.7,2.1-0.7,4.4-0.1,6.6c0,0.1,0,0.2,0,0.2c0,0.2-0.1,0.2-0.1,0.4
									c-0.8,1.5-1.4,3-1.8,4.5c-0.6,2-0.7,4-0.9,6c0,0.1,0,0.2,0.1,0.3H38c0.1-0.3,0.1-0.7,0.2-1.1c0.2-2.3,0.7-4.6,1.5-6.8
									c0.7-1.8,1.7-3.5,2.6-5c0.6-0.9,1.2-1.9,1.7-2.9c0.6-1.1,0.8-2.2,0.8-3.5c0.7,2.3,0.6,4.5-0.2,6.8c0.2-0.2,0.4-0.3,0.6-0.5
									c1.9-0.8,3.6-1.8,5.1-3.2c1.2-1.1,2.3-2.4,3-4c0.5-1.1,0.8-2.3,0.9-3.6c0.1,0,0.1,0.1,0.2,0.1c2,1.1,4,2.2,6,3.3
									c2.1,1.2,4.4,2.4,6.3,3.9C67,36.1,67.5,36.4,67.9,36.8L67.9,36.8C67.9,36.8,67.9,36.8,67.9,36.8L67.9,36.8L67.9,36.8z
									 M53.6,28.6c-0.2,1.9-1,3.6-2,5.3c-1,1.6-2.4,2.7-4,3.7c-0.8,0.5-1.7,1-2.4,1.5c-0.1,0.1-0.2,0.1-0.4,0.2l0,0
									c1.2-2.6,1-5-0.2-7.5c0.8-0.2,1.7-0.4,2.6-0.7c1.6-0.6,3.1-1.4,3.9-2.9c0.3-0.5,0.5-1.1,0.7-1.7c0.1,0.1,0.2,0.1,0.2,0.2
									c0.5,0.4,0.8,0.8,1.4,1.2C53.6,28.1,53.6,28.2,53.6,28.6L53.6,28.6z"/>
								<path d="M69.8,45.6C69.7,48,69,50.3,68,52.5c-1.3,2.9-3.3,5.5-5.9,7.4c-1.1,0.8-2.3,1.6-3.5,2.3c-0.2,0.2-0.4,0.4-0.4,0.7
									c-0.1,1.4-0.7,2.6-1.7,3.6c-0.7,0.7-1.6,1-2.6,1.1c-1.1,0.1-2.1,0.1-3.1-0.5c-0.2-0.1-0.3-0.2-0.4-0.3
									c2.1,0.6,4,0.4,5.6-0.9c0.6-0.5,1-1.1,1.2-1.8c0-0.1,0-0.1,0.1-0.1c0.1-0.2,0.2-0.5,0.2-0.7c0.1-0.2,0,0,0,0
									c0-0.1,0.1-0.2,0.1-0.3l0,0c0.1-0.7-0.1-1.2-0.1-1.2c-0.5-4-2.9-7.5-7.4-8.3c-1.1-0.2-2.3-0.3-3.4-0.2c-0.1,0-0.2,0-0.3,0
									c-0.2,0-0.2,0-0.3,0c6.4-1.7,12.2,3.5,12.4,9.1c8.3-5.5,11.7-13.3,10.9-23.1c0.1,0.5,0.2,1.1,0.3,1.6
									C69.7,42.5,69.9,44,69.8,45.6L69.8,45.6z"/>
								<path d="M14.2,50.6c-1.2-0.7-2.6-1.4-3.8-2.1c1-0.4,1.7-1.1,2.3-1.9l0.1-0.1l0.1-0.1c0.1-0.1,0.2-0.2,0.2-0.3l0,0
									c0.2-0.3,0.3-0.7,0.5-1c0-0.1,0.1-0.2,0.1-0.2c0.3-0.7,0.6-1.5,0.7-2.3c0.3-1.5-0.1-3-1.1-4.1c1.6,2.2,0.7,4.2-0.3,6.4
									l-1.7-1.3c0.2-0.4,0.5-0.7,0.7-1.2c0.6-1.1,0.8-2.2,0.2-3.5c-0.5-0.9-1.5-1.2-2.4-0.7c-2.1,1.2-3.2,3.1-3.5,5.5
									c-0.1,0.2-0.1,0.5-0.1,0.7c0,0.9,0.2,1.8,0.7,2.6l0,0c0.1,0.1,0.1,0.2,0.2,0.2c0.3,0.3,1,1,2.3,1.4l0,0
									c0.2,0.1,0.5,0.1,0.7,0.2l0,0c0.1,0.1,0.2,0.1,0.2,0.1c1.3,0.6,2.6,1.2,3.9,1.9c1.2,0.7,2.4,1.4,3.6,2.1L18,53
									C16.7,52.2,15.5,51.3,14.2,50.6L14.2,50.6z M7.9,46.9c-0.9-1.2-1-2.6-0.7-4.1c0.4-1.7,1.3-3.2,3-4.1c0.8-0.5,1.7,0.2,1.8,1
									c0.2,1.4-0.3,2.6-0.8,3.8c-0.1,0.1-0.2,0.2-0.3,0.2c0.6,0.5,1.1,0.9,1.7,1.4c0.1,0.1,0.2,0.3,0.2,0.3
									c-0.6,0.8-1.2,1.7-2.1,2.1C9.5,48,8.5,47.7,7.9,46.9z"/>
								<path d="M65.3,36.8c-1.2-0.1-2.5-0.2-3.7-0.1c-2.7,0.1-5.3,0.6-7.8,1.9c-1.7,1-3.2,2.3-4,4.2c-0.6,1.2-0.6,2.3,0.6,3.3
									c0.5,0.5,1.1,0.9,1.7,1.4l0.1,0.1c0.9,0.8,1,1.4-0.1,2.1c-0.6,0.4-1.2,0.7-1.7,1.1c-0.8,0.6-1,0.9-0.7,1.9
									c-0.6-0.5-0.7-1.2-0.2-1.7c0.5-0.5,1.1-0.8,1.7-1.3c0.2-0.2,0.4-0.2,0.6-0.3c0.3-0.2,0.5-0.6,0.2-0.9
									c-0.4-0.5-0.8-1-1.4-1.4c-0.5-0.5-1-0.7-1.5-1.2c-0.6-0.7-0.7-1.5-0.6-2.3c0.2-1.2,0.8-2.1,1.7-3c2.1-2.1,4.6-3.6,7.7-4.1
									c2.4-0.4,4.8-0.2,7.2,0.4C65.1,36.8,65.2,36.8,65.3,36.8L65.3,36.8L65.3,36.8z"/>
								<path d="M25.4,56.6c0.5,0.2,1.1,0.5,1.7,0.6c1.2,0.3,2.4,0.3,3.6,0.2c2.6-0.2,5.1-0.9,7.7-1.4c2.3-0.5,4.5-0.6,6.9,0
									c1,0.3,2,0.7,3.1,1.2l-2.8-2l0.1-0.1c0.3,0.2,0.7,0.4,1.1,0.6c1.6,1,3.1,2.1,4.1,3.6c0.8,1.2,1.3,2.4,1,3.9
									c-0.2,0.8-0.6,1.5-1.1,2.1c-0.1,0.1-0.2,0.2-0.5,0.3c0-0.2-0.1-0.4,0-0.5c0.2-0.5,0.4-1,0.6-1.5c0.6-1.7,0.2-3.1-0.7-4.5
									c-0.2-0.3-0.5-0.6-0.7-0.8c-0.6-0.8-1.6-1-2.4-1.3c-2.1-0.7-4.1-0.8-6.3-0.5c-2.5,0.4-4.9,0.9-7.4,1.3
									c-1.9,0.3-3.8,0.4-5.7-0.1C26.8,57.7,26,57.2,25.4,56.6L25.4,56.6L25.4,56.6z"/>
								<path d="M38.2,14.4c0.2,0,0.2,0,0.4,0.1l0.1,4.4c-0.2-0.6-0.2-1.3-0.2-2.1c0.1-0.6-0.1-1.2-0.1-1.9l0,0
									C38.4,14.6,38.4,14.4,38.2,14.4L38.2,14.4L38.2,14.4z"/>
								<path d="M48,21.2c-0.3,0.8-0.8,1.5-2,2.3c-1.2,0.9-2.4,1.4-4.1,1.9l0,0c-0.1,0-0.2,0.1-0.2,0.1c0,0.7,0.2,1.5,0.3,2.2
									c0.4,1.4,0.9,2.8,0.8,4.3c0,0.1,0,0.2-0.1,0.2h-0.1l-0.2-1.3c-0.1-0.5-0.2-1-0.2-1.5s-0.2-1-0.4-1.4c-0.9,0.3-1.7,1-2.4,1.7
									l0,0l0,0l-0.1,0.1c-0.1,0.1-0.2,0.2-0.3,0.3l0,0c-0.4,0.3-1,1-1.2,1.4c-0.2,0.2-0.2,0.4-0.4,0.6c-0.2,0.5-0.6,1-0.8,1.4
									c0.1-0.9,0.6-1.7,1.1-2.4c-0.5,0.2-1,0.5-1.5,0.7c-1.7,1-3.5,2.1-5,3.3c-0.2,0.2-0.3,0.2-0.5,0.4c-0.1,0.1-0.2,0.1-0.4,0.2
									l-0.1-0.2c0.2-0.2,0.5-0.5,0.7-0.7c1.4-1.1,2.8-2.1,4.2-3.2c1-0.6,2.1-1,3.1-1.5c0.2-0.1,0.2-0.2,0.4-0.2
									c0.9-1,1.9-1.7,3.2-2.1c-0.1-0.7-0.2-1.5-0.2-2.1c-0.3,0-0.7,0-1.1-0.1l0,0c-1.7,0.1-2.1-0.2-2.3-0.4l0,0
									c0-0.1-0.1-0.1-0.1-0.1l0,0l0,0v-0.1l0,0c0-0.1,0-0.1,0-0.1c-0.2-0.5-0.2-1.1-0.4-1.6c-0.3-1.2-0.7-2.4-1.3-3.9
									c-0.3-1.2-0.5-2.6-0.2-4c0.1-0.5,0.2-0.7,0.1-1.2l1.5,0.7c-0.2,0.5-0.5,0.5-1.3,0.1c0,1.1-0.2,2.1,0.1,3.3
									c0.4,1.6,0.8,2.5,1.2,3.7c0.2,0.7,0.3,1.6,0.5,2.3c0.1,0.2,0.1,0.3,0.1,0.4l0.4,0.1l0,0l0.3,0.1l0,0l0,0l0,0h0.2l0,0
									c0.9,0,2.3-0.1,3-0.4l0,0c0.3-0.1,0.6-0.2,0.9-0.3c1.3-0.5,2.6-1.2,3.6-2.2c0.2-0.2,0.3-0.4,0.5-0.7
									c0.2-0.3,0.3-0.7,0.5-1.1c0.1-0.2,0.2-0.5,0.2-0.7c0.1-0.2,0.1-0.3,0.1-0.6c0.4-2.2,0.7-5.2,0.7-5.8c0-0.1,0-0.2-0.1-0.2
									c0.1,0,0.2-0.1,0.2-0.1C49.2,14.1,48.8,18.9,48,21.2L48,21.2z"/>
								<path d="M22.7,60.1c8.4,4.2,17.4,6,26.8,5.5c-1.2,0.7-9.1,0.6-13.9-0.3C30.6,64.4,25.5,62,22.7,60.1z"/>
								<path d="M35.5,56c-0.6-0.2-1.2-0.2-1.7-0.5c-2.1-0.7-4.1-1.8-6-3.1c-2.3-1.6-4.5-3.3-6.4-5.3c-2.1-2.1-4.1-4.2-6.2-6.3
									c-0.2-0.2-0.5-0.6-0.7-0.8c-0.1-0.1-0.1-0.2-0.1-0.3c0-0.1,0-0.1,0-0.1c0.1,0.1,0.2,0.1,0.2,0.1c2.1,2.1,4.1,4.1,6.2,6
									c1.4,1.3,2.6,2.6,4.1,3.9c3.1,2.7,6.6,4.8,10.6,6.1l0.2,0.1L35.5,56z"/>
								<path d="M36,50.3L36,50.3c-0.9-1.3-1.7-2.7-2.5-4.1c-0.7-1.2-1.2-2.5-1.8-3.7c-0.4-1-0.8-2-0.8-2.1l0,0
									c-1.4-3.5-2.6-7.1-3.6-10.7c-0.2-1-0.6-2-0.8-3c-0.1-0.2-0.1-0.3-0.1-0.5l0.2-0.1c0.1,0.2,0.2,0.3,0.2,0.5
									c1.2,3.6,2.3,7.1,3.5,10.6c0.4,1.2,0.8,2.3,1.2,3.5c0.7-2.1,1.8-4.1,3.1-6c-0.3,0.7-0.7,1.5-1.1,2.2c-0.6,1.3-1.2,2.6-1.7,4
									c-0.1,0.2-0.1,0.4,0.1,0.6c1.2,3,2.5,5.8,4.1,8.6C36,50.2,36,50.2,36,50.3L36,50.3L36,50.3z"/>
								<path d="M39.8,31.3c-1,0.5-1.4,1.3-1.7,2.1c-0.3,0.8-0.7,1.7-1,2.7C37,36,37,35.8,37,35.8c0.2-0.8,0.4-1.7,0.7-2.4
									c0.3-1.1,1.2-2,2-2.8c0.1-0.1,0.2-0.2,0.3-0.1c0.1,0.1,0.3,0.3,0.3,0.5c0,0.4-0.1,0.7-0.2,1.2c-0.2,0.6-0.5,1.1-0.6,1.7
									c-0.3,1.9-0.5,3.7,0.3,5.5v0.1c0,0.1,0,0.1,0,0.1c-0.6-0.6-0.7-1.2-0.8-1.9c-0.3-1.9,0.1-3.7,0.7-5.5
									C39.7,31.7,39.7,31.5,39.8,31.3L39.8,31.3z"/>
								<path d="M25.4,56.7c-0.8-0.5-1.4-1.2-1.7-2.1c-0.1-0.2-0.1-0.2-0.2-0.4c-0.2-0.7-0.7-1.3-1.5-1.6c-0.9-0.3-1.7-0.8-2.1-1.7
									c-0.4-0.7-0.4-1.6-0.3-2.4l0.2-0.1c0.1,0.1,0.1,0.2,0.1,0.3c0.1,0.8,0.2,1.7,0.9,2.3c0.4,0.3,0.8,0.6,1.3,0.7
									c1,0.4,1.7,1.1,1.8,2.1C24.1,55.1,24.6,55.9,25.4,56.7L25.4,56.7L25.4,56.7z"/>
								<path d="M49.2,18.2c0.3-0.3,0.7-0.6,1.1-1c0.7-0.6,1.2-1.2,1.5-2.1c0.1-0.3,0.2-0.6,0.2-0.9c0-0.4-0.2-0.7-0.5-0.8
									c-0.4-0.2-0.8-0.2-1.1,0.2c-0.3,0.5-0.6,1-0.8,1.4c-0.1-0.6,0.6-1.7,1.2-2.1c0.8-0.4,1.6,0.2,1.7,1.1
									c0.2,1.5-0.9,3.5-2.3,4.1C49.8,18.2,49.5,18.2,49.2,18.2L49.2,18.2L49.2,18.2z"/>
								<path d="M38.2,25.3C38.1,25.3,38.1,25.2,38.2,25.3C38.2,25.2,38.2,25.3,38.2,25.3L38.2,25.3L38.2,25.3z"/>
								<path d="M13.3,50.6c0.3,0.3,0.7,0.7,1,1c0.7,1,1.4,2.1,2.1,3.1c0.2,0.3,0.6,0.7,0.9,0.8c1.1,0.7,2.2,1.3,3.1,2.3
									c0.2,0.2,0.4,0.5,0.6,0.7c-0.7-0.5-1.2-0.9-1.9-1.3c-0.6-0.4-1.2-0.7-1.9-1.1c-0.5-0.3-0.8-0.7-1.1-1.1
									c-0.7-1.1-1.3-2.2-2-3.3C13.9,51.4,13.6,51.1,13.3,50.6C13.2,50.6,13.3,50.6,13.3,50.6z"/>
								<path d="M45.1,15.3c-0.9,0.8-2,1.2-3.2,1c-0.3-0.1-0.6-0.3-0.9-0.5c-0.1-0.1,0-0.2,0.1-0.2c0.1-0.1,0.1-0.1,0.2-0.1l0,0
									c0.2,0,0.3,0.1,0.5,0.1C42.7,15.8,43.8,15.8,45.1,15.3z"/>
								<path d="M20.3,53.8c-0.8-0.2-1.3-0.8-1.7-1.6c-0.5-0.8-0.3-1.9,0.4-3.1c-0.1,0.7-0.3,1.7-0.2,2.6
									C18.9,52.5,19.7,53.1,20.3,53.8z"/>
								<path d="M38.9,20.8c0.2,0.2,0.5,0.5,0.6,0.5c0.6-0.1,1.1,0.1,1.5,0.5c0.1,0.1,0.4,0,0.6,0c-0.3,0.3-0.6,0.4-1,0.2
									c-0.2-0.2-0.5-0.2-0.8-0.2C39.3,21.9,38.9,21.5,38.9,20.8z"/>
								<path d="M40.9,22.5c-0.6,0.7-1.3,0.7-1.7,0.1c0.2-0.2,0.3-0.2,0.6-0.1C40.2,22.6,40.4,22.9,40.9,22.5z"/>
							</g>
						</g>
					</g>
					<path d="M51.8,8.3c0-0.1,0-0.1,0-0.2V8.3L51.8,8.3L51.8,8.3z M51.8,8.2c0-0.1,0-0.1,0-0.2C51.8,8.1,51.8,8.1,51.8,8.2z
						 M51.7,7.9L51.7,7.9L51.7,7.9L51.7,7.9L51.7,7.9L51.7,7.9z"/>
					<path d="M41.9,12.1c0.5,0.1,1.1,0.1,1.7,0.1c0.3,0,0.6,0,0.9,0C43.6,12.1,42.7,12.1,41.9,12.1L41.9,12.1z"/>
					<path d="M52.1,9.3L52.1,9.3L52.1,9.3L52.1,9.3L52.1,9.3C52.1,9.2,52,9.2,52.1,9.3C52,9.2,52,9.2,52.1,9.3L52.1,9.3
						c-0.2-0.2-0.2-0.2-0.2-0.2l0,0l0,0c0-0.1,0-0.2,0-0.2c0-0.2,0-0.3,0-0.5c0-0.2,0-0.2-0.1-0.3V8c0-0.1,0-0.1,0-0.1
						c0-0.1,0-0.1,0-0.2c0-0.1,0-0.1,0-0.2l0,0c-0.1-0.3-0.2-0.7-0.3-1.1c0,0,0,0,0-0.1v0.1c0.1-0.1,0.1-0.2,0.1-0.2
						c-0.1-0.4-0.2-0.8-0.5-1.2c-0.5-0.6-0.8-1.1-1.5-1.3c-0.1,0-0.1-0.1-0.1-0.1c-0.2-0.3-0.4-0.6-0.7-0.8C48,2.2,47.1,1.9,46,1.7
						c-0.3-0.1-0.6-0.1-0.9-0.1c-0.6,0-1.2,0.1-1.7,0.2c-0.2,0.1-0.5,0.1-0.7,0.2C42.3,2,41.9,2,41.6,2.2c-1.4,0.3-2.6,1.1-3.6,2.1
						c-0.5,0.5-0.9,1.2-1.1,2c-0.1,0.2-0.1,0.3-0.1,0.5l0,0C36.5,7.4,36.2,8,36,8.6C36,8.6,36,8.6,36,8.6c-0.7,0.5-1.5,1-2.1,1.6
						c-0.2,0.2-0.4,0.4-0.6,0.6c-0.2,0.3-0.2,0.7,0,1c0.2,0.2,0.3,0.4,0.6,0.6c1,0.7,2.1,1.4,3.2,1.9c1.5,0.7,3.1,0.8,4.8,0.4
						c1.6-0.4,3.1-0.8,4.6-1.2l2.8-0.8c0.2-0.1,0.5-0.2,0.7-0.2c0.6-0.2,1.2-0.4,1.7-0.7c0.6-0.2,0.8-0.7,0.8-1.4
						C52.5,10.1,52.3,9.6,52.1,9.3L52.1,9.3L52.1,9.3z M35.9,10.1C36,9.7,36,9.5,36.1,9.1c0.1-0.3,0,0,0,0l0,0
						c0.1-0.2,0.1-0.5,0.2-0.7c0.1-0.3,0.2-0.6,0.3-0.9C36.7,7.2,36.9,7,37,6.7l0,0c0.9-1.7,2.3-3.1,4-4c1.1-0.6,2.1-0.9,3.4-1
						c0.2-0.1,0.4-0.1,0.6-0.1c0.7,0,1.4,0.1,2.1,0.3c0.8,0.3,1.5,0.7,1.9,1.4c0,0.1,0.1,0.1,0.1,0.1c-0.2-0.1-0.3-0.1-0.5-0.1
						c-0.2-0.1-0.6-0.1-0.8-0.1c-0.4,0-0.8,0.1-1.2,0.2c-1.2,0.3-2.4,0.9-3.3,1.8c-0.7,0.7-1.3,1.5-1.7,2.3h0.1
						C42.4,6,43.7,4.8,45.6,4c0.7-0.2,1.3-0.4,2.1-0.4c0.1,0,0.2,0,0.2,0c0.7,0,1.2,0.2,1.7,0.6c0.3,0.2,0.5,0.5,0.7,0.7
						c0.2,0.2,0.2,0.4,0.4,0.6h0.1c-0.1-0.1-0.2-0.2-0.2-0.2c-0.6-0.5-1.2-0.6-1.9-0.6c-1,0.1-1.7,0.5-2.6,1
						c-0.8,0.6-1.6,1.2-2.1,2.1l0,0h0.1C45,6.7,46,5.9,47.5,5.4c0.5-0.2,0.9-0.3,1.4-0.3c1,0,1.7,0.4,2.1,1.1
						c0.3,0.5,0.4,1.1,0.5,1.7c0,0.3,0.1,0.6,0.1,0.8c0,0.3,0,0.6-0.1,0.8c0,0.1,0,0.1,0,0.1c0,0.1-0.1,0.2-0.1,0.3
						c0,0,0,0.1-0.1,0.1l-0.2,0.1l-0.8,0.5l0,0c-1.1,0.6-3.1,1.2-6,1.4h0c-0.3,0-0.6,0-0.9,0c-0.6,0-1.1,0-1.7-0.1l0,0
						c-0.6-0.1-1.1-0.1-1.7-0.2l-0.2,0.1C40,11.1,40,10.6,40,9.9c0.1-0.4,0.1-0.8,0.2-1.2V8.6c0-0.1,0-0.1,0-0.1
						c0-0.2,0.1-0.2,0.1-0.4c0.1-0.2,0.1-0.3,0.1-0.5c0.1-0.2,0.2-0.6,0.2-0.8l0,0c0.2-0.8,0.6-1.6,1.1-2.2c1-1.4,2.4-2.1,4.1-2.4
						C46.2,2,46.5,2,47,2c-0.1,0-0.2,0-0.3,0c-0.2,0-0.2,0-0.2,0c-0.8,0-1.7,0.1-2.6,0.3c-1.4,0.4-2.6,1.3-3.3,2.6
						c-0.3,0.6-0.7,1.2-0.8,1.7l0,0c0,0.1-0.2,0.6-0.5,1.7c-0.1,0.2-0.1,0.5-0.2,0.7c-0.2,0.9-0.2,1.8-0.2,2.8v0.2c0.1,0,0.1,0,0,0
						c-0.9-0.7-1.9-1.3-3-1.9C35.9,10.1,35.9,10.1,35.9,10.1L35.9,10.1L35.9,10.1z M51.7,11.1c-0.3,0.2-0.7,0.3-1.1,0.5l-0.3,0.1
						l-0.2,0L49.3,12L49.1,12l-2.2,0.7l0,0c-1.7,0.5-3.2,0.8-4.9,1.2c-0.6,0.2-1.2,0.2-1.8,0.2c-0.3,0-0.7,0-1-0.1
						c-0.9-0.1-1.7-0.4-2.6-0.8c-0.8-0.3-1.6-0.8-2.3-1.3c-0.2-0.2-0.3-0.3-0.5-0.5c-0.2-0.2-0.2-0.5,0-0.7c0.1-0.2,0.2-0.2,0.3-0.3
						C34.7,9.8,35.4,9.5,36,9H36c-0.1,0.3-0.2,0.6-0.2,0.9c-0.1,0.2-0.1,0.2,0.2,0.3c1.1,0.5,2.1,1.2,3.1,1.9
						c0.1,0.1,0.1,0.1,0.1,0.1h0.1c0.2-0.1,0.3-0.1,0.5-0.2C39.9,12,40,12,40.2,12c0.1,0,0.1,0,0.2,0c1.1,0.1,2.1,0.2,3.3,0.2
						c1.7,0,3.3-0.2,4.9-0.6l0,0l0,0l0,0c1.3-0.4,1.9-0.7,2.1-0.7l0,0l0,0l0.1-0.1l0.1-0.1c0.3-0.2,0.7-0.4,1.1-0.6
						c0.1-0.1,0.1-0.1,0.1-0.2c0-0.1,0-0.2,0.1-0.2c0-0.2,0.1-0.3,0.1-0.5c0-0.1,0-0.2,0.1-0.2c0.1,0.1,0.1,0.1,0.1,0.2
						c0.2,0.2,0.3,0.5,0.3,0.8c0,0.1,0,0.1,0,0.1C52.3,10.6,52.1,11,51.7,11.1L51.7,11.1L51.7,11.1z"/>
					<path d="M55.4,28.6c-0.3-0.2-0.6-0.3-0.7-0.5C54.8,28.2,55.1,28.4,55.4,28.6z"/>
					<path d="M18.6,21C18.6,21,18.5,21,18.6,21C18.6,21,18.6,21,18.6,21L18.6,21z"/>
					<path d="M20.7,23.6c0,0-0.1,0.1-0.1,0.2C20.6,23.8,20.6,23.6,20.7,23.6z"/>
					<path d="M23.4,28.2c0.4-0.2,0.8-0.4,1.2-0.7c0.4-0.2,0.8-0.7,1.2-1.2l0,0c0.1-0.1,0.2-0.2,0.3-0.3l0,0c0.7-1,0.6-1.7,0.6-1.7
						c-0.1-0.7-0.5-1.1-1.2-1.2c-0.5-0.1-1.1-0.2-1.6-0.1c-0.7,0.1-1.5,0.3-2.1,0.6c-0.1-0.2-0.2-0.6-0.3-0.9s-0.1-0.6-0.1-1
						c0.1-0.5,0.1-0.9,0.2-1.4h-0.1c-0.1,1.1-0.5,2.1-1.1,3.1l0,0c0,0-0.2,0.2-0.3,0.5l0,0l0,0L20,24l-0.1,0.1
						c-1.2,1.6-2.9,2.7-4.5,3.9c-0.5-0.6-0.8-1.1-1.2-1.6L14,26.3l0,0l-0.5-0.5l-0.2-0.3h-0.1c-0.1-0.1-0.2-0.1-0.3-0.2l-0.2-0.1
						c0,0.2,0.1,0.3,0.2,0.4l2.2,2.6c-0.7,0.5-1.5,0.8-2.3,1.1c-0.7,0.2-1.4,0.2-2.1,0.1c-0.6-0.2-1-1-1-1.5c0-1,0.5-1.9,1-2.7
						c1-1.7,2.3-3.1,4.1-4c0.7-0.3,1.4-0.5,2.1-0.6c1.3-0.2,1.7,0.6,1.5,1.7c-0.2,1.5-1.1,2.6-2.3,3.3c-0.4,0.2-0.9,0.5-1.3,0.7
						c-0.2,0.1-0.2,0.2-0.2,0.3c0.2,0,0.4,0.1,0.6-0.1c1.4-0.6,2.6-1.5,3.5-2.7c0.6-0.8,0.6-1.7,0.2-2.6c0-0.1-0.1-0.1-0.1-0.1
						c-0.2-0.2-0.3-0.5-0.6-0.7l0,0c-0.3-0.2-0.7-0.3-1.2-0.4c-0.7,0-1.3,0.2-1.9,0.5c-2,1-3.6,2.5-4.8,4.3c-0.6,0.7-1,1.7-1.1,2.6
						c-0.1,0.8,0.1,1.7,0.6,2.2c0.7,0.8,1.6,1.7,2.3,2.5c1.2,1.5,2.6,3,3.7,4.5c1.7,2.4,3.3,4.8,5,7.2c0.1,0.1,0.2,0.2,0.3,0.2
						c0-0.1,0-0.2-0.1-0.3c-1.5-2.6-3.1-5-4.9-7.2c-1.7-2-3.5-3.9-5.2-5.8c-0.2-0.1-0.3-0.2-0.5-0.4l0.1-0.1c1.7,0.5,3.1-0.2,4.5-1
						l0,0l0.2-0.1l0.1-0.1c0.2-0.2,0.5-0.3,0.7-0.5l0.1-0.1c1.5-1.2,2.8-2.4,4-3.9l0,0c0.1-0.1,0.1-0.1,0.1-0.2v-0.1
						c0.1-0.2,0.2-0.3,0.3-0.5c0.1-0.2,0,0,0,0c0.1-0.1,0.1-0.2,0.1-0.2l0,0l0,0c0.2-0.3,0.3-0.6,0.5-1c0.1,0.3,0.2,0.5,0.2,0.7
						c0.1,0.1,0.1,0.2,0.1,0.3l0.5,1.5l0,0l1,2.8l0.2,0.6l0,0l0.2,0.5c1.7,4.5,3.6,8.9,6.1,13.1c2.5,4.3,5.5,8.3,8.4,12.3
						C31.9,46.2,26.7,37.7,23.4,28.2L23.4,28.2z M23.2,28L23.2,28c-0.5-1.2-0.8-2.5-1.3-3.7c1.1-0.5,2.1-0.9,3.4-0.7
						c0.6,0.1,0.9,0.3,1,0.7l0,0l0,0l0,0c0.1,0.1,0.2,0.5-0.1,1.2c-0.2,0.5-0.5,0.8-0.8,1.2C24.7,27.2,24.1,27.7,23.2,28L23.2,28
						L23.2,28z"/>
					<path d="M26,26.1c-0.1,0.1-0.2,0.2-0.3,0.3C25.9,26.3,26,26.3,26,26.1z"/>
					<path d="M52,9.2L52,9.2L52,9.2z"/>
					<path d="M51.7,7.7c0-0.1,0-0.1,0-0.2C51.7,7.7,51.7,7.7,51.7,7.7z"/>
				</g>
			</g>
		</g>
		<g>
			<g>
				<path class="st0" d="M106.1,40.1h3.1c0.7-2.7,2-9,2.8-11.2c1-2.6,6.1-7,7.9-6c0.7,0.4-0.2,2.8-0.3,3.5
					c-1.2,4.2-2.1,6.4-2.8,10.7c-0.5,2.6,0.8,4.8,4.4,2.7c1.2-0.7,4.1-2.8,4.9-4.1c-0.2-0.3-0.3-0.6-0.6-0.8c-1.1,0.6-4,3.7-4.8,3
					c-1-1.9,3.6-12.9,3.7-16c0.1-1.7-1-2.6-2.6-2.3c-3.6,0.7-8.6,5.9-9,6.1c0.2-1.5,0.7-3.1,1-4.5l1-4.4c0.2-1.5,0.7-3,1-4.4
					c1.2-5,3.5-3.3,6.8-3.1c0.9,0.1,1.7,0.1,2.2-0.5c1.2-1,1.2-3.7-3.6-2.9c-1.4,0.2-2.9,1-3.9,1.7c-4.9,3-5.7,8-7.1,14.5l-2.1,8.8
					c-0.3,1.5-0.7,3-1.1,4.4C106.3,37.2,106.1,37.9,106.1,40.1L106.1,40.1z"/>
				<path class="st0" d="M102.3,19.1h1.2c0.1-1.5,0.7-5.5,1.2-7.1c0.5-1.7,0.7-1.4-0.5-1.6c-1.7-0.2-3.1-0.7-4.9-0.7
					c-3.1,0-6,1.1-8,3.1c-3.2,3.2-4.1,7-1.3,10.8c1.1,1.6,4.5,4,6,6.7c1.7,2.9,0.6,5.8-1.7,7.9c-0.2,0.2-0.5,0.4-0.7,0.6
					c-0.3,0.3-0.5,0.3-0.8,0.6c-1.9,1.2-4.5,1.7-6.7,0.9c-3.9-1.4-1.8-6.5-5.1-6.1c-1.7,0.2-3.3,3.7,1.1,6.6c2.3,1.5,6.1,1.9,9.3,1
					l2.1-0.7c1.7-0.7,3.7-2,4.9-3.5c1.7-2,3.2-5,2-8.3c-1.1-3-4-5.5-6.2-7.7c-1.7-1.7-2.6-3.7-1.7-6.2c1.8-4.6,8.8-6,9.9-1.7
					C102.7,15.3,102.3,17.5,102.3,19.1L102.3,19.1z"/>
				<path class="st0" d="M159.3,35c-0.2-0.2-0.5-0.7-0.7-1c-0.3,0.1-2.3,1.5-2.8,1.8c-0.8,0.6-2,1.2-3.1,1.6
					c-1.5,0.5-2.8,0.1-3.2-1.2c-0.2-1-0.2-3.2,0.1-4.2c1.1-0.3,5.3-2.4,6.7-3.2c1.8-1,4.2-3,4.5-5.5c0.5-5.1-6.6-4.6-10.2-0.5
					c-1.9,2.1-3.5,5-4.4,8c-0.7,2.2-1.2,6.6,0.1,8.5c0.8,1.1,2,1.4,3.8,1.2c3-0.3,6-2.6,8-4.4C158.4,36,159.1,35.4,159.3,35
					L159.3,35z M150,30.5c1.2-0.2,4-2.1,5-2.9c1.2-1,3.2-3.2,1.7-5.2c-0.7-0.8-2.1-0.7-3-0.1C151.6,23.8,150.1,28.2,150,30.5z"/>
				<path class="st0" d="M177.9,35c-0.2-0.3-0.5-0.7-0.7-1c-0.3,0.2-0.6,0.3-0.9,0.6l-2.7,1.8c-2.1,1.2-5.3,2.4-5.5-1.4
					c-0.2-3.3,0.1-3,2.3-3.9c0.7-0.3,1.4-0.7,2.1-1c2.5-1.2,5.5-2.8,6.7-5.5c2.4-5.9-7.1-7.9-12.3,1.6c-1.5,2.7-2.7,5.5-2.8,9.4
					c0,2.1,0.3,3.6,1.6,4.5c1.3,0.9,3.7,0.5,5.1-0.1c1.7-0.7,2.6-1.3,4-2.2C175.2,37.4,177.6,35.6,177.9,35L177.9,35z M168.6,30.5
					c2.3-0.8,9.5-4.8,6.7-8.2c-0.7-0.8-2.1-0.7-3-0.1C170.2,23.8,168.8,28.2,168.6,30.5L168.6,30.5z"/>
				<path class="st0" d="M137,26.3l1.1-4.4c0.6-2.2,0.1-2.6-2.5-1.7c-1.2,0.4-2.6,1.2-3.6,1.9c-1.5,1-2.1,2-3,2.6
					c0.2,0.3,0.3,0.7,0.7,0.8c0.6-0.2,3.3-3.6,4.2-2.8c0.6,0.5-1.7,8.4-1.7,8.8l-2.1,8.6l3.6,0.1c0.2-0.3,2-8.3,2.6-10.2
					c1-2.6,3.6-5.7,6.1-6.9c1.2-0.6,3.9-1.1,4.2-2.2c0.5-1.5-1.2-3.1-3.6-1.3c-1.9,1.5-3.3,3.1-4.8,5
					C138.1,24.7,137.1,26.1,137,26.3z"/>
			</g>
			<path class="st1" d="M93.9,51.8c-2.3,0.3-3.7,2.1-4.5,4.3c-0.6,1.6-0.8,3.9,0.7,5c0.5,0.3,1.1,0.5,1.8,0.3
				c1.9-0.2,3.9-2.4,4.4-4.2C97.3,54.5,96.5,51.4,93.9,51.8L93.9,51.8z M92.8,52.7c-0.5,0.2-1.2,1.1-1.4,1.7
				c-0.3,0.7-0.6,1.2-0.7,2.3c0,1-0.1,1.9,0.2,2.8c0.9,2.6,3.7,0.5,3.8-2.8C94.9,55.4,95.1,52,92.8,52.7L92.8,52.7z"/>
			<path class="st1" d="M162.6,51.8c-1.9,0.3-2.8,1.2-3.7,2.8l-0.3,0.6l-0.1,0.1l-0.1,0.1c-0.7,1.1-1.2,3.9-0.2,5.2l0.5,0.4
				c0.8,0.6,2,0.7,2.9,0.3c0.3-0.2-0.2,0.1,0.2-0.1l0.5-0.3c0.2-0.2,0.4-0.2,0.6-0.5c1-0.9,1.7-1.7,2.2-3.3c0.3-1.3,0.5-3.5-0.3-4.5
				C164.3,52,163.6,51.6,162.6,51.8L162.6,51.8z M161.7,52.7c-0.1,0.1-0.7,0.6-0.8,0.7c-2.1,2.2-1.4,9.8,1.7,6.4
				C164.2,57.9,164.4,51.8,161.7,52.7L161.7,52.7z"/>
			<path class="st1" d="M87,59.9c-0.8-0.2-0.7,0.7-1.7,1.5c-0.2,0.2-0.4,0.3-0.7,0.5c-1.7,1-3.4,0.4-4.3-1.4
				c-1.2-2.6-0.3-7.1,1.6-9.7c0.6-0.7,0.8-1.2,1.7-1.7c0.8-0.6,2.5-1,3.6-0.2c1,0.7,0.7,2.3,0.7,3.8l0.6-0.1c0.1-1.7,0.3-2.6,0.7-4
				c-0.4-0.1-0.6-0.1-0.9-0.2c-1.6-0.7-3.6-0.8-5.1,0.1c-0.3,0.2-0.6,0.2-0.8,0.5c-1,0.7-1.2,0.9-2,1.9L79,53
				c-1.2,2.4-1.7,6.9-0.1,8.7l1.4,1.2C83.9,64.6,87.3,61.1,87,59.9L87,59.9z"/>
			<path class="st1" d="M128.3,54l0.3,0.2c0.7-0.3,0.9-1.1,1.9-1.1c0.1,0.8-0.6,3.3-0.8,4.1c-0.2,0.6-0.7,2.6-0.7,3.1
				c0,1,0.2,0.9,0.3,1c0.8,0.5,1.9-0.3,2.5-0.7c0.2-0.2,0.3-0.2,0.5-0.3c0.2-0.2,0.3-0.2,0.5-0.3c0.3-0.2,0.5-0.6,0.9-0.8
				c-0.1,0.4-0.2,0.7-0.2,1.2c0,0.3,0,0.3,0.1,0.7c0.2,0.4,0.4,0.6,1,0.5c1.1-0.1,2.3-1.8,3-2.1c-0.2-0.2-0.2-0.2-0.3-0.5
				c-0.7,0.4-1.4,1.7-1.9,1.3c-0.5-0.2,0.8-4.8,1-5.5l0.7-2.6h-1.4c-0.2,0.2-1,3.9-1.4,4.9c-0.4,1.2-0.6,1.2-1.2,1.9
				c-0.3,0.5-1.2,1.1-1.9,1.2c-0.5-0.5-0.4-0.7-0.2-1.5c0.6-2.6,2.6-8.3-0.3-6.4c-0.2,0.2-0.3,0.2-0.6,0.4
				C129.4,52.9,128.5,53.4,128.3,54L128.3,54z"/>
			<path class="st1" d="M97.8,54c0.2,0.2,0.2,0.2,0.3,0.4l0.3-0.4c0.2-0.2,0.2-0.1,0.5-0.3c0.3-0.2,0.7-0.6,1.1-0.5
				c0.2,0.6-0.6,3.2-0.7,4.1c-0.2,0.7-0.2,1.4-0.5,2.1c-0.2,0.9-0.5,1.3-0.5,2h1.7c0.1-0.8,0.8-4.3,1.2-5c0.6-1.5,3.5-3.8,3.5-2.3
				l-0.2,1.2c-0.2,0.6-0.3,1.1-0.5,1.6l-0.8,3.1c-0.1,0.7-0.1,1.3,0.3,1.7c0.5,0.3,1.1,0.1,1.5-0.2l0.2-0.2c0.8-0.6,1.2-0.8,1.9-1.7
				c-0.1-0.2-0.1-0.2-0.2-0.4c-0.4,0.2-0.6,0.6-1,0.8c-0.2,0.1-0.6,0.5-0.7,0.5c-0.5,0.1-0.3-0.1-0.3-0.1c-0.6-0.6,1.7-6.1,1.7-7.3
				c-0.1-2.1-2.2-0.5-3.1,0l-0.1,0.1l-1.9,1.7c0.1-0.3,0.5-2.3,0.5-2.6c-1.4-0.5-2.4,0.7-3.2,1.2c-0.2,0.2-0.3,0.2-0.5,0.3
				C98,53.8,97.9,53.9,97.8,54L97.8,54z"/>
			<path class="st1" d="M166.6,54c0.2,0.2,0.2,0.1,0.2,0.4c0.3-0.5,2.6-2.8,1.8-0.1c-0.2,0.5-0.2,0.8-0.3,1.4
				c-0.3,0.8-0.4,1.7-0.6,2.6c-0.2,0.7-0.6,1.9-0.6,2.6h1.7c0-0.6,0.9-5,1.4-5.6c0.1-0.2,0.1-0.1,0.2-0.2c0.5-0.6,1.6-1.7,2.4-2.1
				c2-0.6-0.4,2.9-0.7,6.5c-0.2,2,0.8,2,2.1,1.1c0.5-0.3,1.6-1.3,1.8-1.7c-0.1-0.1-0.2-0.2-0.2-0.3c-0.8,0.3-1.2,1.4-1.9,1.3
				c-0.4-0.1-0.1,0-0.2-0.1c-0.8-0.8,4.5-11.3-1.1-7.5l-2.4,2.1c0.7-2.6,0.9-3.3-0.7-2.7c-0.5,0.2-1.2,0.7-1.5,0.9
				c-0.1,0.1-0.2,0.2-0.2,0.2c-0.3,0.3-0.3,0.2-0.7,0.6L166.6,54L166.6,54z"/>
			<path class="st1" d="M148,52.5h-1.7l-0.2,0.8h1.7c-0.5,3.1-2.8,8.4-0.3,8.1c1-0.1,2.6-1.5,3.4-2.1c0.3-0.2,0.5-0.3,0.7-0.5
				c-0.2-0.3-0.2-0.2-0.4-0.5c-0.7,0.5-1.7,1.7-3.1,1.5c-0.3-0.7,0.3-3.2,0.6-4.1l0.7-2.4l2.1-0.1l0.1-0.8h-2.1
				c0.1-0.5,0.2-1.1,0.3-1.6c0.1-0.5,0.2-1,0.3-1.5c-0.7,0.2-1.6,0.4-1.7,1C148.4,50.9,148.3,52.2,148,52.5L148,52.5z"/>
			<path class="st1" d="M117,52.5h-1.6l-0.3,0.8h1.7c-0.3,1.2-1.5,6.1-1.4,7.1c0.2,1.7,1.8,0.7,2.6,0.2l1.2-1c0.4-0.3,0.9-0.7,1.2-1
				l-0.3-0.5c-1.1,0.7-1.9,1.7-3.1,1.5c-0.2-0.9,0.2-2.6,0.5-3.3c0.3-0.8,0.6-2.1,0.8-3.1c2.4,0,2.3,0.2,2.3-0.8h-2.1l0.7-3.1
				c-2.4,1-1.5,0.4-2.1,2.6L117,52.5L117,52.5z"/>
			<path class="st1" d="M111.9,51.8c-0.7,0.2-0.7,0.1-1.1,0.4c-0.3,0.2-0.6,0.3-0.8,0.7c-0.4,0.7-0.7,1.7-0.3,2.6
				c0.2,0.3,0.3,0.7,0.6,1.1c0.3,0.5,2.1,1.7,1.6,3.1c-0.2,0.7-0.9,1.2-1.8,1.2c-1.7,0-0.7-1.2-1.2-1.9c-0.8-1.1-2.3,0.8-0.7,2.1
				l0.1,0.1l0.4,0.2c0.2,0.1,0.4,0.1,0.7,0.2c0.4,0.1,0.9,0.1,1.3,0c1.2-0.1,2.4-1.2,2.6-2.1c0.7-2.6-2.1-3.5-2.3-5.3
				c-0.1-1.3,0.9-1.7,1.5-1.2c0.3,0.2,0.5,0.6,0.7,0.8c0.8,0.8,1.7-0.2,1.2-1C113.8,51.9,112.8,51.6,111.9,51.8L111.9,51.8z"/>
			<path class="st1" d="M125.1,54.7c0.6-2.6,1.3-4-1.7-2.1c-0.4,0.2-1.5,1-1.7,1.7l0.3,0.3c0.1-0.3,1.4-1.5,1.7-1.2
				c0.2,0.2,0.2-0.3,0.1,0.4l-1.2,5.6c-0.2,0.6-0.5,1.2-0.6,1.9l1.7,0.1c0.1-1,0.8-4.3,1.2-5.1c0.1-0.2,0.1-0.2,0.2-0.5
				c0.2-0.3,0.3-0.6,0.6-0.9c1.7-2.1,3.1-1.6,3.4-2.5c0.1-0.4-0.1-1.6-1.4-0.6c-0.6,0.5-1,0.8-1.5,1.4L125.1,54.7L125.1,54.7z"/>
			<path class="st1" d="M144.2,58.8c-0.3,0.1-0.6,0.3-0.8,0.5c-0.3,0.2-0.4,0.3-0.9,0.6c-0.6,0.3-1.7,0.6-2.1-0.2
				c-0.8-1.6,0.2-5.9,1.4-6.6c1.1-0.7,1.5,0.1,2.1,0.3c1.1,0.3,1.7-0.3,1.2-1.1c-0.7-1.2-3.1-0.5-4.1,0.5c-3.2,3.1-4.2,10.2,0.6,8.3
				c0.7-0.3,1.2-0.7,1.9-1.1C144.1,59.6,144.5,59.5,144.2,58.8L144.2,58.8z"/>
			<path class="st1" d="M152.5,54c0.3,0.2,0.1,0.1,0.4,0.2c0.6-0.2,0.9-1.1,1.9-1.2c0.1,0.8-0.6,2.4-0.7,3.3
				c-0.1,0.6-0.3,0.9-0.5,1.6c-0.1,0.5-0.3,1.2-0.3,1.7c-0.1,0.6-0.2,1.5,0.2,1.7c0.6,0.4,1.3-0.1,1.7-0.4c0.9-0.7,1.8-1.7,2-1.7
				c-0.2-0.2-0.2-0.2-0.4-0.4c-1.2,0.8-2.9,3.5-1.4-2.1c0.2-0.6,0.3-1.1,0.4-1.7c0.2-0.8,1.2-2.8,0.5-3.2c-0.7-0.5-2.6,0.7-3,1.1
				C153.1,53.3,152.8,53.7,152.5,54L152.5,54z"/>
			<path class="st1" d="M156.7,47.2c-0.2,0.1-0.5,0.1-0.6,0.7c-0.2,0.7,0.6,1.2,1.1,1c0.4-0.2,0.7-0.6,0.7-1.2
				c-0.1-0.5-0.3-0.7-0.7-0.7C156.5,47.1,157,47.1,156.7,47.2z"/>
		</g>
	</g>
</g>
</svg>
