<svg width="50" height="50" viewBox="0 0 50 50" fill="none" xmlns="http://www.w3.org/2000/svg">
<g id="Group 56">
<path id="Vector" d="M23.5983 0.00391087C23.9802 0.232045 24.3387 0.48234 24.4991 0.926876C24.5929 1.1876 24.8484 1.19281 25.0557 1.26842C29.2377 2.81322 31.8971 5.72942 32.927 10.0666C33.1108 10.8422 33.3324 11.4158 34.0455 11.9334C35.7924 13.2018 35.5929 15.8625 33.7522 17.0931C33.4315 17.3082 33.279 17.5246 33.2972 17.917C33.4706 21.4316 31.9701 24.2774 29.6771 26.7868C29.3577 27.1362 29.4059 27.2105 29.8231 27.3526C32.5216 28.2743 34.8746 29.7513 36.8418 31.8162C37.1403 32.1304 37.3567 32.1512 37.7048 31.9153C38.5717 31.3287 39.3786 30.6755 40.1204 29.9403C40.8022 29.2637 41.3158 29.2572 42.0041 29.9442C43.6832 31.6181 45.6086 32.8774 47.9291 33.4783C48.1963 33.5474 48.4701 33.6009 48.7425 33.6348C49.6225 33.7443 49.9015 34.0806 49.9328 34.9801C50.0853 39.2416 48.6161 42.9426 46.0519 46.2708C45.3453 47.1872 44.6088 48.0776 43.704 48.8089C43.4133 49.0436 43.1096 49.2652 42.7915 49.4621C41.6261 50.1882 40.4554 50.1738 39.2913 49.4516C38.6929 49.0814 38.1337 48.6512 37.667 48.1298C37.3163 47.7374 36.9291 47.6305 36.422 47.6318C30.9142 47.6461 25.4077 47.6409 19.8999 47.6409C19.6235 47.6409 19.3445 47.6539 19.0825 47.5392C18.6641 47.3567 18.4411 47.0295 18.4516 46.5837C18.462 46.117 18.7097 45.7897 19.1673 45.6424C19.4358 45.5564 19.7135 45.5616 19.9898 45.5616C24.8458 45.5616 29.7005 45.5616 34.5565 45.5616C34.6869 45.5616 34.8186 45.5707 34.9476 45.559C35.1014 45.5447 35.3074 45.6385 35.3895 45.4638C35.456 45.3231 35.2918 45.2018 35.2122 45.0858C34.464 43.9947 33.8395 42.8396 33.3324 41.6169C32.4186 39.4137 32.1018 37.1128 32.1774 34.7468C32.1983 34.0963 32.5568 33.7351 33.2555 33.6478C33.8395 33.5748 34.4053 33.4301 34.9672 33.2593C35.2109 33.185 35.2592 33.0938 35.0584 32.9034C33.906 31.8097 32.6441 30.8724 31.2192 30.1567C30.9129 30.0029 30.8594 30.1098 30.8647 30.3992C30.9155 32.9087 29.7031 34.8797 28.1388 36.6892C27.6851 37.2132 27.0698 37.1793 26.5106 36.6409C25.0583 35.2382 23.6178 33.8251 22.1643 32.425C21.8631 32.1356 21.6168 31.6415 21.2244 31.6311C20.8515 31.6207 20.6104 32.1121 20.3197 32.3898C18.8844 33.7625 17.4595 35.1457 16.032 36.5249C15.2694 37.2614 14.7597 37.2432 14.0766 36.4363C12.8043 34.9332 11.82 33.2906 11.5971 31.2843C11.5645 30.9949 11.5372 30.7003 11.5476 30.4096C11.5593 30.0602 11.4472 30.0211 11.1539 30.1723C9.75249 30.8933 8.48016 31.7928 7.37077 32.91C4.29422 36.01 2.69859 39.8218 2.04287 44.0729C1.91381 44.9098 2.20582 45.2748 3.02189 45.4704C3.4573 45.5746 3.89662 45.5551 4.33464 45.5564C6.29007 45.5629 19.9781 45.5577 21.9335 45.5616C22.1447 45.5616 22.3598 45.5655 22.5645 45.6072C23.0977 45.7141 23.4418 46.1417 23.4236 46.6371C23.4053 47.126 23.0169 47.5418 22.498 47.6213C22.3859 47.6383 22.2712 47.6383 22.1565 47.6383C20.0224 47.6383 6.15449 47.6435 4.02046 47.6318C3.36735 47.6279 2.72075 47.5405 2.09632 47.3398C0.778354 46.9174 0.0509325 45.924 0.00400207 44.5383C-0.0403211 43.249 0.290799 42.0223 0.636259 40.8047C1.60355 37.3879 3.18354 34.2983 5.67215 31.7237C7.60673 29.7226 9.91284 28.2899 12.5383 27.3656C13.0898 27.1714 13.0898 27.174 12.7169 26.7582C11.0027 24.8484 9.70556 22.7182 9.25451 20.1501C9.11893 19.3784 9.09677 18.5988 9.12284 17.8179C9.13327 17.5129 9.0368 17.3186 8.76695 17.1413C6.60816 15.7191 6.70071 12.7977 8.94294 11.5149C9.18151 11.378 9.27797 11.2242 9.32621 10.9569C10.2153 6.03968 13.0181 2.75325 17.7711 1.14458C17.9627 1.0794 18.1309 1.01031 18.2234 0.810853C18.4033 0.422374 18.7253 0.1799 19.1008 0H23.5983V0.00391087ZM31.2245 18.9038C31.2245 18.8061 31.2245 18.7083 31.2245 18.6105C31.2262 17.9804 30.9072 17.6654 30.2676 17.6654C24.2071 17.6654 18.1465 17.6654 12.086 17.6654C11.94 17.6654 11.7927 17.6719 11.6467 17.6654C11.3468 17.6511 11.2021 17.7671 11.1982 18.0891C11.1878 18.969 11.1878 19.849 11.4694 20.695C12.6648 24.2904 15.0387 26.8312 18.4607 28.4203C20.4292 29.3341 22.3794 29.209 24.3035 28.2756C27.105 26.9146 29.153 24.804 30.4892 22.0078C30.9546 21.0326 31.2531 20.0028 31.2258 18.9025L31.2245 18.9038ZM34.2593 36.4597C34.2619 36.9994 34.3375 37.53 34.4353 38.058C35.108 41.6833 36.9878 44.6308 39.6107 47.1442C40.7448 48.2301 41.351 48.2458 42.4839 47.152C45.6595 44.0833 47.7544 40.4827 47.8782 35.9396C47.8874 35.6215 47.7583 35.555 47.5132 35.4937C45.1837 34.9188 43.1787 33.7417 41.3901 32.1747C41.1502 31.9648 40.9964 31.9257 40.737 32.1552C38.9654 33.7156 36.9734 34.8849 34.6673 35.4729C34.3636 35.5498 34.2202 35.7036 34.258 36.0217C34.2749 36.1664 34.2606 36.3137 34.2606 36.4597H34.2593ZM21.154 15.5952C24.606 15.5952 28.0567 15.5952 31.5087 15.5952C31.7042 15.5952 31.901 15.6044 32.094 15.5822C32.7328 15.5105 33.1773 14.9838 33.1564 14.3412C33.1356 13.718 32.6767 13.2448 32.0457 13.2018C31.8671 13.1901 31.6872 13.1927 31.5087 13.1927C24.6542 13.1927 17.7998 13.1927 10.9453 13.1927C10.7341 13.1927 10.5203 13.1848 10.3104 13.2096C9.52436 13.3035 9.05114 14.113 9.3575 14.8404C9.59736 15.4101 10.0601 15.5991 10.652 15.5978C14.1522 15.5913 17.6524 15.5952 21.1527 15.5952H21.154ZM14.117 11.116C14.8497 11.116 15.5823 11.0938 16.3136 11.1251C16.7321 11.1421 16.9094 10.9752 17.041 10.5919C17.8128 8.3497 18.0266 6.03447 18.0279 3.68404C18.0279 3.2017 17.7971 3.28122 17.5064 3.40897C14.2891 4.81558 12.2802 7.22468 11.4642 10.6363C11.3677 11.0365 11.5137 11.1251 11.8709 11.1186C12.6192 11.1069 13.3674 11.1147 14.117 11.116ZM28.3865 11.116C29.1191 11.116 29.8531 11.1069 30.5857 11.1199C30.9481 11.1264 31.0485 10.9674 30.9729 10.6376C30.1946 7.24814 28.2105 4.85208 25.0244 3.44287C24.7181 3.30729 24.5773 3.33076 24.6021 3.71272C24.6477 4.39321 24.6607 5.07631 24.6998 5.7568C24.795 7.45281 25.0987 9.10841 25.6697 10.7145C25.7727 11.0052 25.9226 11.129 26.2355 11.1225C26.9525 11.1056 27.6695 11.1173 28.3865 11.116ZM21.3274 11.116C21.9296 11.116 22.5332 11.0938 23.1342 11.1238C23.5696 11.1447 23.6178 11.0078 23.4927 10.6193C23.0312 9.19184 22.807 7.72005 22.6766 6.2248C22.5684 4.99288 22.6101 3.75834 22.5423 2.52512C22.5189 2.09101 22.3729 1.95283 21.9596 1.98151C21.5711 2.00888 21.1787 1.98672 20.7877 1.98802C20.1111 1.98802 20.1085 1.98802 20.1098 2.64766C20.115 5.38396 19.9898 8.10462 19.1399 10.7366C19.0486 11.0182 19.1308 11.1225 19.4241 11.1173C20.0589 11.1069 20.6938 11.1147 21.3287 11.1147L21.3274 11.116ZM28.8388 30.3418C28.8388 30.1958 28.8506 30.0485 28.8375 29.9038C28.7528 28.9482 27.839 28.5181 27.0385 29.0669C26.04 29.7513 24.9671 30.2858 23.8173 30.6573C23.4692 30.7694 23.494 30.8737 23.7247 31.094C24.8263 32.1499 25.9226 33.2111 27.0112 34.2814C27.2249 34.4912 27.3345 34.4508 27.4961 34.2253C28.3291 33.0612 28.8454 31.7914 28.8401 30.3418H28.8388ZM13.6138 29.9794C13.5147 31.5946 14.0362 32.9921 14.9696 34.2644C15.1417 34.4991 15.2603 34.4339 15.4285 34.2696C16.5092 33.2137 17.5912 32.1578 18.6849 31.1162C18.9887 30.8268 18.8974 30.7355 18.5467 30.6273C17.453 30.2871 16.4101 29.8125 15.5028 29.119C14.9513 28.698 14.469 28.8974 13.9528 29.0708C13.4678 29.235 13.7298 29.6861 13.6138 29.9794Z" fill="black"/>
<path id="Vector_2" d="M40.6352 42.8696C40.368 42.8852 40.1542 42.7705 39.9561 42.6219C39.449 42.2399 38.9392 41.8632 38.4413 41.4695C37.9172 41.0536 37.8207 40.4931 38.1727 40.016C38.5234 39.5401 39.0905 39.4776 39.6458 39.823C39.9548 40.0147 40.1998 40.4748 40.5609 40.3653C40.8582 40.2754 41.0667 39.8869 41.3079 39.6223C41.8554 39.0213 42.3912 38.4099 42.9453 37.8154C43.4485 37.2757 44.0338 37.2119 44.494 37.6238C44.9528 38.0344 44.9489 38.6354 44.4614 39.1764C43.4824 40.2636 42.4955 41.343 41.5113 42.4264C41.274 42.6871 41.0055 42.8878 40.6352 42.867V42.8696Z" fill="black"/>
</g>
</svg>
